<svg width="56" height="56" viewBox="0 0 56 56" fill="none" xmlns="http://www.w3.org/2000/svg"><path fill="#000" d="M0 0h56v56H0z"/><circle cx="28" cy="28" r="28" fill="#000"/><path fill-rule="evenodd" clip-rule="evenodd" d="M41 32.99a16.2 16.2 0 0 1-2.2 4.3 14.72 14.72 0 0 1-2.14 2.5 4.2 4.2 0 0 1-2.75 1.18c-.7 0-1.55-.2-2.54-.6-.99-.38-1.9-.58-2.73-.58-.87 0-1.8.2-2.8.59-1.01.4-1.82.6-2.44.62-.94.04-1.87-.36-2.8-1.2a15.6 15.6 0 0 1-2.24-2.6 17.78 17.78 0 0 1-2.37-4.58c-.66-1.87-.99-3.68-.99-5.43 0-2.02.45-3.75 1.34-5.2a7.77 7.77 0 0 1 6.61-3.8c.75 0 1.73.22 2.94.66 1.22.44 2 .66 2.34.66.25 0 1.12-.26 2.58-.78a8.77 8.77 0 0 1 3.52-.6c2.6.2 4.54 1.19 5.84 2.98-2.32 1.37-3.47 3.29-3.45 5.74.02 1.92.74 3.51 2.14 4.78A7.09 7.09 0 0 0 41 32.99zM34.47 11l.03.6c0 1.5-.57 2.9-1.69 4.2-1.36 1.54-3 2.43-4.78 2.29a4.54 4.54 0 0 1-.03-.57 6.9 6.9 0 0 1 3.97-5.83 6.66 6.66 0 0 1 2.5-.69z" fill="#fff"/></svg>